<svg width="136" height="18" viewBox="0 0 136 18" fill="none" xmlns="http://www.w3.org/2000/svg">
<path d="M3.32 17.1299L5.816 13.3859L8.288 17.1299C8.504 17.4419 8.84 17.6099 9.224 17.6099H11.432V0.809862H8.624V13.4099L7.208 11.2739L6.728 10.5779C6.296 9.90586 5.312 9.90586 4.88 10.5779L4.4 11.2739L2.984 13.4099V0.809862H0.2V17.6099H2.384C2.768 17.6099 3.104 17.4419 3.32 17.1299ZM21.3526 0.857863C21.2806 0.833862 21.1846 0.809862 21.1126 0.809862H14.9446C14.3206 0.809862 13.8406 1.31386 13.8406 1.93786V17.6099H16.6246V13.5299C17.6566 13.3139 18.5926 12.9059 19.4326 12.3539V17.6099H22.2406V1.93786C22.2406 1.40986 21.8566 0.977863 21.3526 0.857863ZM16.6246 10.6259V3.61786H19.4326V8.41786C18.7846 9.44986 17.8006 10.2419 16.6246 10.6259ZM32.1573 0.857863C32.0853 0.833862 31.9893 0.809862 31.9173 0.809862H24.6453V17.6339H27.4293V13.5299C28.2933 13.3619 29.0853 13.0259 29.8293 12.6179L30.2373 13.3859V17.6339H33.0453V13.3859L31.7733 11.0099C32.2773 10.4339 32.7093 9.80986 33.0453 9.13786V1.93786C33.0213 1.40986 32.6613 0.977863 32.1573 0.857863ZM27.4293 3.61786H30.2373V8.41786C29.5893 9.44986 28.6053 10.2419 27.4293 10.6259V3.61786ZM42.962 0.857863C42.89 0.833862 42.794 0.809862 42.722 0.809862H36.554C35.93 0.809862 35.45 1.31386 35.45 1.93786V17.6099H38.234V13.5299C39.266 13.3139 40.202 12.9059 41.042 12.3539C42.242 11.5619 43.202 10.4339 43.826 9.13786V1.93786C43.826 1.40986 43.466 0.977863 42.962 0.857863ZM38.234 10.6259V3.61786H41.042V8.41786C40.394 9.44986 39.41 10.2419 38.234 10.6259ZM49.0387 0.809862H46.2547V16.5059C46.2547 17.1299 46.7347 17.6099 47.3587 17.6099H54.6307V14.8259H49.0387V0.809862ZM64.5714 0.857863C64.4994 0.833862 64.4034 0.809862 64.3314 0.809862H58.1634C57.5394 0.809862 57.0594 1.31386 57.0594 1.93786V17.6099H59.8434V13.5299C60.8754 13.3139 61.8114 12.9059 62.6514 12.3539V17.6099H65.4594V1.93786C65.4594 1.40986 65.0754 0.977863 64.5714 0.857863ZM59.8434 10.6259V3.61786H62.6514V8.41786C62.0034 9.44986 61.0194 10.2419 59.8434 10.6259ZM75.0641 0.809862L72.2561 6.42586L69.4481 0.809862H66.6641L70.8641 9.20986V17.6099H73.6481V9.20986L77.8481 0.809862H75.0641ZM79.0672 14.8259V17.6099H80.7472C81.3472 17.6099 81.8512 17.1299 81.8512 16.5059V14.8259H79.0672ZM89.8623 14.8259H87.0543V3.61786H89.8623V6.47386C91.0623 6.04186 92.0703 5.15386 92.6463 4.02586V1.93786C92.6463 1.31386 92.1663 0.809862 91.5423 0.809862H84.2703V17.6099H91.5423C92.1663 17.6099 92.6463 17.1299 92.6463 16.5059V9.40186H89.8623V14.8259ZM97.859 0.809862H95.075V16.5059C95.075 17.1299 95.555 17.6099 96.179 17.6099H103.451V14.8259H97.859V0.809862ZM105.88 1.93786V16.5059C105.88 17.1299 106.36 17.6099 106.984 17.6099H113.152C113.776 17.6099 114.256 17.1299 114.256 16.5059V1.93786C114.256 1.31386 113.776 0.809862 113.152 0.809862H106.984C106.36 0.809862 105.88 1.31386 105.88 1.93786ZM111.472 14.8259H108.664V3.61786H111.472V14.8259ZM122.276 0.809862V14.8259H119.468V0.809862H116.684V16.5059C116.684 17.1299 117.164 17.6099 117.788 17.6099H123.956C124.58 17.6099 125.06 17.1299 125.06 16.5059V0.809862H122.276ZM127.489 0.809862V17.6099H134.761C135.385 17.6099 135.865 17.1299 135.865 16.5059V1.93786C135.865 1.31386 135.385 0.809862 134.761 0.809862H127.489ZM133.081 14.8259H130.273V3.61786H133.081V14.8259Z" fill="#57D6FF"/>
</svg>
